<svg width="351" height="476" viewBox="0 0 351 476" fill="none" xmlns="http://www.w3.org/2000/svg">
<path fill-rule="evenodd" clip-rule="evenodd" d="M-33.5954 273.911C-37.5164 292.279 -37.813 311.434 -34.2954 330.49C-29.997 353.773 -21.2883 375.528 -8.77356 394.825C3.73608 414.112 20.04 430.929 39.5362 444.344C59.0654 457.781 80.6149 467.013 103.099 471.807C125.568 476.598 148.997 476.96 172.302 472.663C201.049 467.361 227.889 456.635 251.688 441.22C275.483 425.809 296.224 405.719 312.777 381.689L313.458 380.701L313.449 380.694L313.494 380.628C329.767 356.724 340.865 330.425 346.516 303.056C352.174 275.652 352.38 247.22 346.861 219.085C334.485 156.021 300.223 101.394 253.204 62.4644C206.42 23.7294 146.946 0.529474 83.7827 0.0124426V0.00857328H83.2848C82.9136 0.00624256 82.5424 0.000776906 82.1708 0C82.0437 0 81.917 0.00352339 81.7915 0.00857328H-383.81C-388.247 0.00857328 -392.299 1.79583 -395.25 4.74652C-398.181 7.67546 -400 11.7111 -400 16.1461C-400 20.5818 -398.181 24.617 -395.25 27.546C-392.299 30.4967 -388.247 32.3022 -383.81 32.3022H83.3812C138.933 32.7089 191.335 53.1746 232.624 87.3705C274.04 121.672 304.216 169.778 315.112 225.288C319.809 249.242 319.645 273.383 314.85 296.587C310.056 319.79 300.62 342.123 286.773 362.463L286.781 362.468L286.172 363.352C272.047 383.858 254.366 400.99 234.094 414.12C213.834 427.242 190.968 436.377 166.46 440.898C147.415 444.41 128.241 444.108 109.828 440.182C91.4335 436.259 73.8224 428.72 57.8842 417.753C41.9153 406.766 28.5708 393.007 18.345 377.24C8.1235 361.48 1.0087 343.698 -2.5069 324.656C-5.24048 309.86 -5.00494 294.958 -1.94873 280.645C1.10434 266.345 6.97067 252.657 15.501 240.274C24.0547 227.857 34.7632 217.482 47.0315 209.533C59.292 201.589 73.1263 196.06 87.9435 193.327C99.3637 191.221 110.869 191.404 121.923 193.761C132.96 196.115 143.522 200.636 153.076 207.21C162.664 213.807 170.674 222.062 176.808 231.519C182.936 240.966 187.202 251.631 189.312 263.057C190.919 271.763 190.779 280.536 188.979 288.968C187.182 297.384 183.732 305.435 178.719 312.713C173.682 320.024 167.38 326.132 160.161 330.809C152.952 335.479 144.812 338.732 136.093 340.34C122.568 342.833 109.292 339.599 98.7768 332.363C88.2486 325.119 80.4805 313.881 77.9883 300.379C76.1537 290.443 78.5328 280.691 83.8538 272.967C89.1853 265.228 97.4533 259.517 107.381 257.682C114.461 256.377 121.409 258.069 126.91 261.854C132.424 265.648 136.492 271.529 137.795 278.59C138.679 283.378 137.534 288.072 134.974 291.788C132.404 295.519 128.423 298.27 123.651 299.15C119.252 299.961 115.608 302.465 113.267 305.863C110.918 309.272 109.872 313.57 110.68 317.951C111.492 322.346 113.998 325.989 117.397 328.328C120.809 330.676 125.109 331.722 129.493 330.914C143.052 328.41 154.322 320.643 161.571 310.12C168.828 299.585 172.074 286.293 169.577 272.752C166.65 256.912 157.561 243.745 145.247 235.273C132.922 226.792 117.369 222.998 101.534 225.915C82.8172 229.369 67.2603 240.093 57.2499 254.625C47.2317 269.168 42.7517 287.52 46.1997 306.213C50.3154 328.494 63.1049 347.018 80.4307 358.939C97.7693 370.87 119.648 376.205 141.929 372.1C154.891 369.71 167.006 364.865 177.753 357.902C188.494 350.944 197.855 341.879 205.318 331.046C212.804 320.178 217.948 308.189 220.618 295.685C223.283 283.199 223.483 270.174 221.088 257.215C218.197 241.553 212.336 226.915 203.913 213.928C195.495 200.951 184.527 189.637 171.418 180.616C158.272 171.571 143.771 165.358 128.646 162.133C113.536 158.911 97.7763 158.668 82.0954 161.56C63.0396 165.071 45.2303 172.192 29.4309 182.428C13.6396 192.659 -0.128571 205.993 -11.1099 221.934C-22.1115 237.905 -29.6701 255.527 -33.5954 273.911Z" fill="white" fill-opacity="0.45"/>
</svg>
