<svg width="26" height="26" viewBox="0 0 26 26" fill="none" xmlns="http://www.w3.org/2000/svg">
<path d="M14.0833 6.50002C14.0833 7.09828 13.5983 7.58328 13 7.58328C12.4017 7.58328 11.9167 7.09828 11.9167 6.50002C11.9167 5.90175 12.4017 5.41675 13 5.41675C13.5983 5.41675 14.0833 5.90175 14.0833 6.50002Z" fill="#FF2B2B"/>
<path d="M13 20.5833C12.5515 20.5833 12.1875 20.2193 12.1875 19.7708V11.375H11.1042C10.6557 11.375 10.2917 11.011 10.2917 10.5625C10.2917 10.114 10.6557 9.75 11.1042 9.75H13C13.4485 9.75 13.8125 10.114 13.8125 10.5625V19.7708C13.8125 20.2193 13.4485 20.5833 13 20.5833Z" fill="#FF2B2B"/>
<path d="M13 26C5.83151 26 0 20.1685 0 13C0 5.83151 5.83151 0 13 0C20.1685 0 26 5.83151 26 13C26 20.1685 20.1685 26 13 26ZM13 1.625C6.72752 1.625 1.625 6.72752 1.625 13C1.625 19.2725 6.72752 24.375 13 24.375C19.2725 24.375 24.375 19.2725 24.375 13C24.375 6.72752 19.2725 1.625 13 1.625Z" fill="#FF2B2B"/>
<path d="M15.4375 20.5833H10.5625C10.114 20.5833 9.75 20.2193 9.75 19.7708C9.75 19.3223 10.114 18.9583 10.5625 18.9583H15.4375C15.886 18.9583 16.25 19.3223 16.25 19.7708C16.25 20.2193 15.886 20.5833 15.4375 20.5833Z" fill="#FF2B2B"/>
</svg>
