<svg width="200" height="63" viewBox="0 0 200 63" fill="none" xmlns="http://www.w3.org/2000/svg">
<g clip-path="url(#clip0)">
<path d="M98.1413 3.13271C98.4052 2.86876 98.55 2.52023 98.55 2.15335C98.55 1.78546 98.4042 1.43693 98.1413 1.174C97.8784 0.911074 97.5288 0.766362 97.1568 0.766362H35.1019L34.9766 0L34.9847 0.764323L34.8431 0.765343C26.8595 0.830565 19.0104 3.72582 12.7439 8.91813C6.42247 14.1553 2.08213 21.4163 0.522914 29.3633C-0.189436 32.9974 -0.174149 36.6641 0.567754 40.2595C1.30864 43.8497 2.75066 47.2382 4.85204 50.3292L4.94988 50.4749C7.08387 53.574 9.75085 56.1757 12.8723 58.1976C15.9969 60.2226 19.4639 61.5963 23.1764 62.2812C26.1461 62.8294 29.1963 62.7927 32.1007 62.1711C35.0326 61.5464 37.7903 60.354 40.2983 58.6256C42.8012 56.9044 44.8975 54.7541 46.5291 52.2359C48.1607 49.7177 49.2684 46.9244 49.8197 43.9343C50.2682 41.5038 50.2386 39.0661 49.7311 36.6875C49.2236 34.3069 48.2544 32.0669 46.8521 30.0298C45.4529 27.9967 43.7072 26.2948 41.6629 24.9689C39.6176 23.6431 37.349 22.7432 34.9215 22.2968C32.9547 21.934 30.9379 21.9585 29.0149 22.3682C27.0765 22.7819 25.2503 23.5717 23.5882 24.7152C21.9321 25.8555 20.5451 27.2792 19.4649 28.9444C18.3846 30.6096 17.6519 32.4593 17.2861 34.4394C16.9875 36.0618 17.0068 37.6883 17.3452 39.272C17.6835 40.8587 18.3306 42.3527 19.2662 43.7142C20.1997 45.0686 21.3645 46.2039 22.726 47.0864C24.0916 47.972 25.605 48.5722 27.2243 48.8708C29.8801 49.359 32.6225 48.77 34.8482 47.2362C37.0912 45.6923 38.5985 43.3697 39.0927 40.6967C39.5004 38.4862 39.0204 36.2463 37.7424 34.3884C36.4655 32.5337 34.5435 31.2873 32.331 30.8787C30.5038 30.5424 28.6123 30.948 27.0765 32.0037C25.5306 33.0677 24.4921 34.6687 24.1517 36.5112C23.8674 38.0562 24.2027 39.6235 25.0964 40.9229C25.9902 42.2192 27.3344 43.0915 28.8814 43.3769C29.2523 43.4421 29.6182 43.3636 29.9208 43.1537C30.2255 42.9438 30.4304 42.6258 30.4976 42.261C30.5649 41.8961 30.4854 41.5262 30.2755 41.2205C30.0655 40.9158 29.7486 40.7119 29.3838 40.6447C28.5665 40.4949 27.8561 40.0322 27.3833 39.3443C26.9114 38.6585 26.7341 37.831 26.8849 37.0136C27.0898 35.9008 27.7186 34.9337 28.6541 34.2896C29.5794 33.6537 30.7198 33.403 31.8296 33.6119C33.3104 33.886 34.5985 34.7227 35.4556 35.968C36.3126 37.2134 36.6336 38.7145 36.3595 40.1963C36.0018 42.1366 34.9052 43.8273 33.2706 44.9524C31.6553 46.0642 29.661 46.4974 27.7247 46.1376C26.4702 45.9063 25.2972 45.4416 24.2404 44.7567C23.1815 44.0709 22.2776 43.1894 21.553 42.1356C20.8315 41.089 20.3311 39.9303 20.0672 38.6951C19.8032 37.46 19.7879 36.1973 20.0183 34.9418C20.3158 33.3255 20.914 31.8183 21.7956 30.4588C22.6771 29.0993 23.8113 27.9365 25.1667 27.003C26.517 26.0726 28.0059 25.4296 29.5917 25.0912C31.1682 24.7559 32.8171 24.7335 34.4191 25.029C36.4838 25.4102 38.4109 26.1745 40.1495 27.3006C41.8881 28.4267 43.3739 29.8769 44.5653 31.6083C45.7546 33.3347 46.577 35.2394 47.0081 37.2664C47.4412 39.2954 47.4677 41.3693 47.0865 43.4329C46.6025 46.0602 45.6302 48.5121 44.1974 50.7236C42.7635 52.935 40.92 54.8244 38.7197 56.3398C36.5236 57.8511 34.1022 58.8988 31.5229 59.4491C28.9629 59.9943 26.2827 60.0289 23.6768 59.5489C20.325 58.9304 17.1994 57.6922 14.3847 55.8669C11.5689 54.0428 9.16181 51.6958 7.2296 48.8902L7.14705 48.77C5.25255 45.9837 3.95422 42.9346 3.28773 39.7061C2.62124 36.4766 2.60799 33.1767 3.25104 29.8973C4.68695 22.5781 8.68385 15.8898 14.507 11.0633C20.2934 6.26847 27.529 3.59742 34.8808 3.54442H97.1528C97.5268 3.5434 97.8763 3.39665 98.1413 3.13271Z" fill="#373737"/>
<path d="M97.1567 46.0991H55.6937C55.3217 46.0991 54.9722 46.2449 54.7092 46.5078C54.4453 46.7717 54.2996 47.1213 54.2996 47.4922C54.2996 47.8632 54.4453 48.2127 54.7082 48.4767C54.9722 48.7406 55.3217 48.8853 55.6937 48.8853H97.1567C97.5287 48.8853 97.8782 48.7396 98.1412 48.4767C98.4051 48.2127 98.5508 47.8632 98.5508 47.4922C98.5508 47.1213 98.4051 46.7717 98.1422 46.5078C97.8772 46.2438 97.5277 46.0991 97.1567 46.0991Z" fill="#373737"/>
<path d="M98.1422 38.624C97.8782 38.36 97.5287 38.2153 97.1567 38.2153H55.6937C55.3217 38.2153 54.9722 38.3611 54.7092 38.624C54.4453 38.8879 54.2996 39.2375 54.2996 39.6084C54.2996 39.9794 54.4453 40.33 54.7092 40.5939C54.9732 40.8579 55.3227 41.0026 55.6937 41.0026H97.1567C97.5277 41.0026 97.8772 40.8568 98.1422 40.5939C98.4051 40.33 98.5508 39.9794 98.5508 39.6084C98.5508 39.2375 98.4051 38.8879 98.1422 38.624Z" fill="#373737"/>
<path d="M122.762 9.08445V31.9938H119.26L106.626 16.4811V31.9938H102.405V9.08445H105.907L118.539 24.5972V9.08445H122.762ZM139.616 32.3209C137.282 32.3209 135.176 31.8134 133.3 30.7994C131.424 29.7844 129.951 28.377 128.882 26.5773C127.812 24.7775 127.278 22.7648 127.278 20.5391C127.278 18.3134 127.812 16.3007 128.882 14.501C129.951 12.7012 131.424 11.2939 133.3 10.2788C135.176 9.26382 137.282 8.75732 139.616 8.75732C141.951 8.75732 144.057 9.26483 145.933 10.2788C147.81 11.2939 149.283 12.6951 150.352 14.4847C151.421 16.2742 151.955 18.292 151.955 20.5391C151.955 22.7862 151.421 24.8051 150.352 26.5936C149.283 28.3821 147.81 29.7844 145.933 30.7994C144.057 31.8134 141.951 32.3209 139.616 32.3209ZM139.616 28.59C141.144 28.59 142.519 28.2465 143.741 27.5587C144.963 26.8718 145.923 25.9118 146.621 24.6787C147.319 23.4456 147.667 22.0657 147.667 20.5381C147.667 19.0105 147.319 17.6306 146.621 16.3975C145.923 15.1644 144.963 14.2044 143.741 13.5175C142.519 12.8296 141.144 12.4862 139.616 12.4862C138.09 12.4862 136.715 12.8296 135.493 13.5175C134.271 14.2044 133.311 15.1644 132.613 16.3975C131.914 17.6306 131.566 19.0105 131.566 20.5381C131.566 22.0657 131.914 23.4456 132.613 24.6787C133.311 25.9118 134.271 26.8718 135.493 27.5587C136.715 28.2465 138.09 28.59 139.616 28.59ZM176.697 9.08445L166.715 31.9938H162.526L152.511 9.08445H157.127L164.751 26.7576L172.443 9.08445H176.697ZM193.258 26.6914L195.549 31.9938H200L189.658 9.08445H185.469L175.159 31.9938H179.545L181.803 26.6914H193.258ZM191.85 23.3539H183.243L187.53 13.3392L191.85 23.3539Z" fill="#373737"/>
<path d="M104.426 47.2455H108.265V47.8152C108.265 48.1841 108.511 48.3828 108.981 48.3828H109.561C110.032 48.3828 110.279 48.1362 110.279 47.6664V46.3497C110.282 45.8779 110.035 45.6333 109.565 45.6333V40.812C109.565 40.3401 109.319 40.0955 108.848 40.0955H104.7C104.231 40.0955 103.986 40.3401 103.986 40.812V41.2981C103.986 43.5115 103.642 44.8486 102.942 45.6333H102.911C102.525 45.6333 102.433 45.8779 102.433 46.3497V47.6664C102.433 48.1362 102.679 48.3828 103.148 48.3828H103.711C104.179 48.3828 104.426 48.1362 104.426 47.6664V47.2455ZM105.968 41.7077H107.552V45.6343H105.054C105.543 44.7569 105.968 43.4667 105.968 42.3447V41.7077ZM115.709 47.2455C116.181 47.2455 116.428 47.0009 116.428 46.5291V46.3507C116.428 45.8789 116.181 45.6343 115.709 45.6343H113.371V44.3951H115.157C115.629 44.3951 115.874 44.1485 115.874 43.6787V43.6124C115.874 43.1426 115.629 42.896 115.157 42.896H113.371V41.7088H115.587C116.038 41.7088 116.309 41.4642 116.309 40.9923V40.814C116.309 40.3421 116.064 40.0976 115.592 40.0976H112.168C111.697 40.0976 111.451 40.3421 111.451 40.814V46.5301C111.451 47.002 111.697 47.2465 112.168 47.2465H115.709V47.2455ZM118.96 47.2465C119.429 47.2465 119.676 46.9999 119.676 46.5281V44.7824C119.869 44.6947 120.084 44.5775 120.326 44.4287C120.735 45.2593 121.595 46.5138 122.333 47.2659C122.492 47.4351 122.662 47.5176 122.85 47.5176C123.009 47.5176 123.168 47.4616 123.33 47.3484L123.623 47.1548C123.848 47.006 123.962 46.8318 123.962 46.6371C123.962 46.4832 123.885 46.3192 123.736 46.149C123.025 45.3551 122.174 44.1668 121.724 43.2649C122.374 42.5994 123.014 41.7128 123.413 40.9342C123.479 40.8069 123.516 40.6825 123.516 40.5755C123.516 40.283 123.264 40.0935 122.871 40.0935H122.232C121.82 40.0935 121.575 40.2627 121.39 40.6316C120.955 41.4876 120.387 42.0716 119.676 42.7014V40.812C119.676 40.3401 119.429 40.0935 118.96 40.0935H118.398C117.929 40.0935 117.682 40.3401 117.682 40.812V46.5281C117.682 46.9999 117.929 47.2465 118.398 47.2465H118.96ZM130.884 46.3986C131.524 45.7587 131.866 44.815 131.866 43.6634C131.866 41.4326 130.483 39.9702 128.246 39.9702C125.849 39.9702 124.493 41.4091 124.493 43.7602C124.493 45.9747 125.916 47.3719 128.246 47.3719C129.358 47.3709 130.249 47.0386 130.884 46.3986ZM126.898 42.202C127.211 41.7872 127.646 41.5814 128.211 41.5814C129.281 41.5814 129.926 42.5302 129.926 43.6878C129.926 44.8975 129.251 45.7597 128.217 45.7597C127.11 45.7597 126.444 44.8669 126.444 43.7653C126.444 43.1447 126.592 42.5974 126.898 42.202ZM134.288 47.2465C134.755 47.2465 135.002 46.9999 135.002 46.5281V45.2328H135.843C137.549 45.2328 138.757 44.3676 138.757 42.5811C138.757 40.9567 137.738 40.0935 135.852 40.0935H133.724C133.256 40.0935 133.01 40.3381 133.01 40.8079V46.5271C133.01 46.9989 133.256 47.2455 133.724 47.2455H134.288V47.2465ZM135.002 41.6466H135.735C136.441 41.6466 136.806 42.0063 136.806 42.6687C136.806 43.3118 136.431 43.7225 135.774 43.7225H135.002V41.6466ZM149.063 47.2465C149.533 47.2465 149.78 46.9999 149.78 46.5281V40.812C149.78 40.3401 149.533 40.0935 149.063 40.0935H148.233C147.752 40.0935 147.541 40.2576 147.265 40.6581C146.976 41.0667 146.703 41.5396 146.38 42.0858L146.309 42.2102C145.789 43.1121 145.408 43.7103 145.064 44.121H145.014L145.043 40.817C145.048 40.3452 144.799 40.0935 144.33 40.0935H143.772C143.304 40.0935 143.057 40.3401 143.057 40.812V46.5281C143.057 46.9999 143.304 47.2465 143.772 47.2465H144.564C144.946 47.2414 145.217 47.1334 145.44 46.8409L145.572 46.6626C145.882 46.257 146.158 45.7902 146.488 45.2787L146.576 45.1401C147.084 44.3044 147.453 43.7571 147.768 43.3882H147.819L147.788 46.522C147.788 46.9938 148.034 47.2455 148.504 47.2455H149.063V47.2465ZM156.087 47.2455H159.925V47.8152C159.925 48.1841 160.172 48.3828 160.642 48.3828H161.222C161.693 48.3828 161.939 48.1362 161.939 47.6664V46.3497C161.943 45.8779 161.696 45.6333 161.226 45.6333V40.812C161.226 40.3401 160.98 40.0955 160.509 40.0955H156.361C155.892 40.0955 155.646 40.3401 155.646 40.812V41.2981C155.646 43.5115 155.303 44.8486 154.602 45.6333H154.572C154.186 45.6333 154.094 45.8779 154.094 46.3497V47.6664C154.094 48.1362 154.34 48.3828 154.809 48.3828H155.372C155.84 48.3828 156.087 48.1362 156.087 47.6664V47.2455ZM157.629 41.7077H159.213V45.6343H156.715C157.204 44.7569 157.629 43.4667 157.629 42.3447V41.7077ZM169.118 47.2465C169.588 47.2465 169.835 46.9999 169.835 46.5281V40.812C169.835 40.3401 169.588 40.0935 169.118 40.0935H168.288C167.808 40.0935 167.596 40.2576 167.32 40.6581C167.031 41.0667 166.758 41.5396 166.435 42.0858L166.364 42.2102C165.844 43.1121 165.463 43.7103 165.119 44.121H165.068L165.098 40.817C165.103 40.3452 164.853 40.0935 164.385 40.0935H163.827C163.358 40.0935 163.112 40.3401 163.112 40.812V46.5281C163.112 46.9999 163.358 47.2465 163.827 47.2465H164.619C165.002 47.2414 165.272 47.1334 165.494 46.8409L165.628 46.6626C165.937 46.257 166.213 45.7902 166.543 45.2787L166.631 45.1401C167.139 44.3044 167.508 43.7571 167.823 43.3882H167.874L167.842 46.522C167.842 46.9938 168.089 47.2455 168.559 47.2455H169.118V47.2465ZM171.657 41.8035C171.794 41.8035 172.102 41.6843 172.291 41.6446C172.501 41.6079 172.755 41.5814 173.063 41.5814C173.74 41.5814 174.191 41.8086 174.191 42.202C174.191 42.6952 173.74 42.9154 172.66 42.9154C172.111 42.9154 171.999 43.1671 171.999 43.6318V43.6461C171.999 44.1159 172.24 44.3625 172.711 44.3625C173.625 44.3625 174.336 44.6173 174.336 45.028C174.336 45.5171 173.882 45.7587 173.118 45.7587C172.462 45.7587 172.104 45.6812 171.746 45.5579C171.689 45.5416 171.643 45.5314 171.613 45.5314C171.413 45.5314 171.239 45.7067 171.095 46.0511L171.069 46.1123C171.013 46.2346 170.987 46.3569 170.987 46.4761C170.987 46.9622 171.515 47.1059 172.027 47.2282C172.432 47.326 172.852 47.3719 173.287 47.3719C175.145 47.3719 176.287 46.6555 176.287 45.2094C176.287 44.3054 175.887 43.8213 175.028 43.4687C175.775 43.163 176.149 42.6188 176.149 41.8341C176.149 40.6927 175.181 39.9702 173.356 39.9702C172.66 39.9702 172.025 40.0772 171.447 40.3075C171.164 40.4196 171.02 40.6102 171.02 40.8813C171.02 41.0035 171.046 41.1279 171.102 41.2502L171.129 41.3062C171.272 41.6395 171.447 41.8035 171.657 41.8035ZM184.04 46.7013C184.04 46.6351 184.029 46.5576 184.008 46.4761L183.777 45.5956C183.163 43.3893 182.462 41.4805 182.08 40.6132C181.915 40.2443 181.655 40.0945 181.245 40.0945H179.828C179.417 40.0945 179.147 40.2484 178.989 40.6183C178.405 41.9309 177.782 43.8713 177.28 45.6669L177.065 46.471C177.044 46.5535 177.034 46.63 177.034 46.7074C177.034 47.0621 177.269 47.2577 177.684 47.2741L178.308 47.2893C178.656 47.2893 179.009 47.2068 179.091 46.7074C179.117 46.5485 179.178 46.3069 179.255 45.9788H181.817L181.998 46.8369C182.064 47.165 182.29 47.2944 182.699 47.2893H182.76L183.384 47.2741C183.798 47.2577 184.04 47.056 184.04 46.7013ZM180.595 41.7077C180.883 42.5098 181.159 43.4035 181.43 44.4257H179.644C179.93 43.3261 180.206 42.4221 180.472 41.7077H180.595ZM191.172 47.2465C191.641 47.2465 191.888 46.9999 191.888 46.5281V40.812C191.888 40.3401 191.641 40.0935 191.172 40.0935H190.341C189.86 40.0935 189.649 40.2576 189.373 40.6581C189.084 41.0667 188.811 41.5396 188.488 42.0858L188.417 42.2102C187.897 43.1121 187.516 43.7103 187.172 44.121H187.122L187.151 40.817C187.156 40.3452 186.907 40.0935 186.438 40.0935H185.88C185.412 40.0935 185.165 40.3401 185.165 40.812V46.5281C185.165 46.9999 185.412 47.2465 185.88 47.2465H186.672C187.054 47.2414 187.326 47.1334 187.548 46.8409L187.68 46.6626C187.99 46.257 188.266 45.7902 188.596 45.2787L188.684 45.1401C189.192 44.3044 189.561 43.7571 189.876 43.3882H189.926L189.896 46.522C189.896 46.9938 190.142 47.2455 190.612 47.2455H191.172V47.2465ZM188.775 39.4627C189.644 39.4627 190.229 39.1651 190.468 38.4854C190.607 38.1012 190.383 38.0135 190.177 37.9738L189.89 37.9208C189.603 37.8647 189.49 37.931 189.331 38.2489C189.254 38.3977 189.023 38.4589 188.78 38.4589C188.493 38.4589 188.308 38.3712 188.22 38.2122C188.072 37.9462 187.922 37.8749 187.662 37.9198L187.384 37.9727C187.023 38.039 187.004 38.2785 187.151 38.6076C187.471 39.2843 188.102 39.4627 188.775 39.4627ZM194.699 47.2465C195.167 47.2465 195.414 46.9999 195.414 46.5281V44.4461H197.931V46.5281C197.931 46.9999 198.178 47.2465 198.648 47.2465H199.228C199.698 47.2465 199.945 46.9999 199.945 46.5281V40.812C199.945 40.3401 199.698 40.0935 199.228 40.0935H198.648C198.178 40.0935 197.931 40.3401 197.931 40.812V42.8308H195.414V40.812C195.414 40.3401 195.167 40.0935 194.699 40.0935H194.136C193.667 40.0935 193.421 40.3401 193.421 40.812V46.5281C193.421 46.9999 193.667 47.2465 194.136 47.2465H194.699Z" fill="#373737"/>
<path d="M72.1634 26.6911H60.7087L58.4504 31.9935H54.0642L64.3734 9.08414H68.5629L78.9047 31.9935H74.4533L72.1634 26.6911ZM70.756 23.3535L66.4361 13.3389L62.1487 23.3535H70.756ZM88.9204 32.3206C87.1533 32.3206 85.4453 32.0699 83.7984 31.5675C82.1516 31.0651 80.8471 30.3996 79.8871 29.5711L81.3597 26.2651C82.2983 27.007 83.4489 27.6124 84.8124 28.0811C86.176 28.5499 87.5457 28.7843 88.9194 28.7843C90.6213 28.7843 91.8921 28.5112 92.7318 27.966C93.5716 27.4208 93.9925 26.7003 93.9925 25.8055C93.9925 25.1512 93.7581 24.6111 93.2893 24.1851C92.8205 23.7591 92.2254 23.4269 91.5059 23.1864C90.7864 22.9469 89.804 22.6738 88.5607 22.3681C86.815 21.9533 85.4025 21.5385 84.3222 21.1248C83.242 20.71 82.3146 20.0608 81.5401 19.1773C80.7656 18.2937 80.3783 17.0993 80.3783 15.5931C80.3783 14.3274 80.7218 13.1768 81.4097 12.1404C82.0965 11.104 83.133 10.2806 84.5189 9.6691C85.9049 9.05866 87.6007 8.75293 89.6083 8.75293C91.0045 8.75293 92.3792 8.9272 93.7326 9.27675C95.086 9.6263 96.2528 10.1277 97.2342 10.782L95.8921 14.0879C94.8883 13.4989 93.8416 13.0515 92.7502 12.7458C91.6587 12.44 90.6009 12.2872 89.5757 12.2872C87.8952 12.2872 86.6468 12.5705 85.8285 13.1381C85.0101 13.7057 84.6015 14.4578 84.6015 15.3964C84.6015 16.0507 84.8359 16.5857 85.3047 17.0005C85.7734 17.4153 86.3686 17.7424 87.0881 17.9819C87.8076 18.2214 88.79 18.4945 90.0333 18.8002C91.7352 19.1926 93.1313 19.6022 94.2228 20.0272C95.3132 20.4522 96.2467 21.1013 97.0212 21.9747C97.7957 22.8471 98.183 24.0261 98.183 25.5089C98.183 26.7747 97.8396 27.9201 97.1517 28.9453C96.4648 29.9705 95.4223 30.7889 94.0261 31.4003C92.6299 32.0149 90.928 32.3206 88.9204 32.3206Z" fill="white"/>
</g>
<defs>
<clipPath id="clip0">
<rect width="200" height="62.6664" fill="white"/>
</clipPath>
</defs>
</svg>
