<svg width="28" height="28" viewBox="0 0 28 28" fill="none" xmlns="http://www.w3.org/2000/svg">
<path d="M5.6 27.6794L14 19.2794L17.3134 22.5928L17.3134 22.5928L19.2734 24.5527L19.2734 24.5528L22.12 27.3994C22.9134 28.1928 24.22 28.1928 25.0134 27.3994L27.3934 25.0194C27.7666 24.6461 28 24.1328 28 23.5728C28 23.0128 27.7666 22.4994 27.3934 22.1261L24.5467 19.2795L22.5867 17.3195L19.2734 14.0061L27.58 5.6994C28.0934 5.18605 28.0934 4.25275 27.58 3.7394L24.2666 0.426103C23.7533 -0.133897 22.8666 -0.133897 22.3066 0.426103L21.3266 1.4061L18.6666 4.0661L16.0534 6.6794C16.0534 6.6794 16.0534 6.6794 16.0533 6.67945L14 8.73275L6.50858 1.24133C6.44695 1.10166 6.321 1.02635 6.16 0.986103L0.560003 0.00610232C0.373354 0.00610231 0.233355 0.0527507 0.140003 0.146102C0.0466518 0.239399 3.80042e-06 0.332751 3.7943e-06 0.472751C3.79226e-06 0.519399 3.79226e-06 0.519399 3.79022e-06 0.566102L0.995317 5.94981C0.985473 5.98706 0.980005 6.02725 0.980005 6.07275C0.980005 6.21275 1.02665 6.35275 1.12 6.3994L8.72665 14.006L8.12 14.6127C8.12 14.6127 8.12 14.6127 8.11995 14.6128L8.11989 14.6128L6.8133 15.9194C6.8133 15.9194 6.8133 15.9194 6.81324 15.9195L6.81319 15.9195L0.326596 22.4061C0.0932436 22.6395 -5.05926e-05 22.9195 -5.06049e-05 23.1995C-5.06171e-05 23.4795 0.0932988 23.7595 0.326596 23.9461L4.05995 27.6795C4.48 28.0994 5.18 28.0994 5.6 27.6794ZM2.14665 6.07275L3.77951 4.43989L19.2505 19.9556L17.64 21.5661L2.14665 6.07275ZM26.74 22.7794C27.16 23.1994 27.16 23.946 26.74 24.366L24.36 26.746C23.94 27.166 23.1934 27.166 22.7734 26.746L20.2534 24.226L24.22 20.2594L26.74 22.7794ZM23.5666 19.6061L21.5833 21.5895L19.6 23.5728L18.2934 22.2661L22.26 18.2995L23.5666 19.6061ZM15.05 8.9894L16.0534 9.99275C16.24 10.1794 16.52 10.1794 16.7067 9.99275C16.8934 9.8061 16.8934 9.5261 16.7067 9.3394L15.7034 8.33605L16.38 7.6594L18.0134 9.29275C18.2 9.4794 18.48 9.4794 18.6667 9.29275C18.8534 9.1061 18.8534 8.8261 18.6667 8.6394L17.0334 7.00605L17.6867 6.3527L18.6667 7.3327C18.8534 7.51934 19.1334 7.51934 19.3201 7.3327C19.5068 7.14605 19.5067 6.86605 19.3201 6.67934L18.3401 5.69934L18.9934 5.04599L20.6268 6.67934C20.8134 6.86599 21.0934 6.86599 21.2801 6.67934C21.4668 6.4927 21.4668 6.2127 21.2801 6.02599L19.6467 4.39275L20.3466 3.69275L21.3266 4.67275C21.5133 4.8594 21.7933 4.8594 21.98 4.67275C22.1667 4.4861 22.1666 4.2061 21.98 4.0194L21 3.0394L21.6534 2.38605L23.2867 4.0194C23.4734 4.20605 23.7534 4.20605 23.9401 4.0194C24.1268 3.83275 24.1267 3.55275 23.9401 3.36605L22.3066 1.73275L22.96 1.0794C23.1466 0.892752 23.4266 0.892752 23.6134 1.0794L26.9266 4.39275C27.02 4.4861 27.0666 4.5794 27.0666 4.7194C27.0666 4.81275 27.02 4.95275 26.9266 5.04605L18.62 13.3528L14.6534 9.3861L15.05 8.9894ZM21.56 17.6461L19.9271 19.279L4.45616 3.76324L6.06665 2.15275L21.56 17.6461ZM5.13335 1.7794L3.60232 3.31043C3.549 3.33373 3.49842 3.36769 3.45336 3.41275L1.76652 5.09964L1.07341 1.07945L5.13335 1.7794ZM4.71335 27.0261L0.980004 23.2928C0.933354 23.2461 0.933354 23.1061 0.980004 23.0594L5.81 18.2294L7.46665 19.886C7.6533 20.0727 7.9333 20.0727 8.12 19.886C8.30665 19.6994 8.30665 19.4194 8.12 19.2327L6.46336 17.576L7.14 16.8994L8.12 17.8794C8.30665 18.066 8.58665 18.066 8.77335 17.8794C8.96 17.6928 8.96 17.4127 8.77335 17.226L7.79335 16.246L8.44671 15.5927L10.0801 17.226C10.2667 17.4127 10.5467 17.4127 10.7334 17.226C10.9201 17.0394 10.9201 16.7594 10.7334 16.5727L9.1 14.9394L9.38 14.6594L13.3467 18.626L4.94665 27.026C4.9 27.0727 4.76 27.0727 4.71335 27.0261Z" fill="white"/>
</svg>
