<svg width="21" height="21" viewBox="0 0 21 21" fill="none" xmlns="http://www.w3.org/2000/svg">
<path d="M2.05447 9.81485H0.684961C0.306387 9.81485 0 10.1216 0 10.4998C0 10.878 0.306387 11.1847 0.684961 11.1847H2.05447C2.43264 11.1847 2.73943 10.878 2.73943 10.4998C2.73943 10.1216 2.43264 9.81485 2.05447 9.81485ZM20.315 9.81485H18.9455C18.5674 9.81485 18.2606 10.1216 18.2606 10.4998C18.2606 10.878 18.5674 11.1847 18.9455 11.1847H20.315C20.6932 11.1847 21 10.878 21 10.4998C21 10.1216 20.6932 9.81485 20.315 9.81485ZM10.5 18.2606C10.1218 18.2606 9.81504 18.5674 9.81504 18.9456V20.3151C9.81504 20.6932 10.1218 21 10.5 21C10.8782 21 11.185 20.6932 11.185 20.3151V18.9456C11.185 18.567 10.8782 18.2606 10.5 18.2606ZM10.5 0C10.1218 0 9.81504 0.306381 9.81504 0.684948V2.05443C9.81504 2.43259 10.1218 2.73938 10.5 2.73938C10.8782 2.73938 11.185 2.433 11.185 2.05443V0.684948C11.185 0.306381 10.8782 0 10.5 0ZM16.0006 18.6572L15.3156 17.4711C15.1266 17.1438 14.7078 17.0314 14.3801 17.2205C14.0528 17.4096 13.9404 17.8283 14.1295 18.156L14.8144 19.3422C15.0035 19.6699 15.4227 19.7819 15.75 19.5928C16.0773 19.4037 16.1897 18.9849 16.0006 18.6572ZM6.87012 2.84356L6.18516 1.65741C5.99607 1.3297 5.5773 1.21773 5.24959 1.40681C4.92188 1.59589 4.8099 2.01465 4.99898 2.34236L5.68395 3.52851C5.87303 3.85621 6.29221 3.96818 6.61951 3.77911C6.94723 3.58962 7.0592 3.17086 6.87012 2.84356ZM19.3426 14.8141L18.1564 14.1292C17.8287 13.9401 17.4099 14.0521 17.2208 14.3798C17.0317 14.7071 17.1441 15.1263 17.4714 15.3153L18.6576 16.0003C18.9849 16.1894 19.4037 16.0774 19.5932 15.7497C19.7822 15.4224 19.6703 15.0032 19.3426 14.8141ZM3.52816 5.68424L2.34199 4.9993C2.01428 4.81022 1.59551 4.9226 1.40643 5.2499C1.21734 5.57761 1.32973 5.99637 1.65703 6.18545L2.8432 6.87039C3.17051 7.05947 3.58928 6.9475 3.77877 6.61979C3.96785 6.29208 3.85588 5.87332 3.52816 5.68424ZM19.5932 5.2499C19.4041 4.92219 18.9853 4.81022 18.6576 4.9993L17.4714 5.68424C17.1441 5.87332 17.0317 6.29208 17.2208 6.61979C17.4099 6.9475 17.8291 7.05947 18.1564 6.87039L19.3426 6.18545C19.6703 5.99637 19.7822 5.57761 19.5932 5.2499ZM3.77877 14.3802C3.58969 14.0529 3.17092 13.9405 2.8432 14.1296L1.65703 14.8146C1.32932 15.0036 1.21734 15.4224 1.40643 15.7501C1.59551 16.0778 2.01469 16.1898 2.34199 16.0007L3.52816 15.3158C3.85588 15.1263 3.96785 14.7075 3.77877 14.3802ZM15.75 1.40681C15.4223 1.21773 15.0035 1.33011 14.8144 1.65741L14.1295 2.84356C13.9404 3.17127 14.0528 3.59003 14.3801 3.77911C14.7074 3.96818 15.1262 3.85621 15.3156 3.52851L16.0006 2.34236C16.1897 2.01465 16.0773 1.59589 15.75 1.40681ZM6.61951 17.2209C6.2918 17.0318 5.87303 17.1438 5.68395 17.4715L4.99898 18.6576C4.8099 18.9849 4.92229 19.4041 5.24959 19.5932C5.57689 19.7823 5.99566 19.6703 6.18516 19.3426L6.87012 18.1564C7.0592 17.8287 6.94723 17.41 6.61951 17.2209ZM10.5 4.10845C6.97594 4.10845 4.10854 6.97539 4.10854 10.4998C4.10854 14.0242 6.97594 16.8911 10.5 16.8911C14.0241 16.8911 16.8915 14.0238 16.8915 10.4998C16.8915 6.9758 14.0241 4.10845 10.5 4.10845ZM10.5 15.5212C7.73104 15.5212 5.47846 13.2687 5.47846 10.4998C5.47846 7.73088 7.73104 5.47835 10.5 5.47835C13.269 5.47835 15.5215 7.73088 15.5215 10.4998C15.5215 13.2687 13.269 15.5212 10.5 15.5212ZM10.5 6.84784C8.48613 6.84784 6.84797 8.48638 6.84797 10.4998C6.84797 10.878 7.15477 11.1847 7.53293 11.1847C7.91109 11.1847 8.21789 10.878 8.21789 10.4998C8.21789 9.24105 9.24205 8.21732 10.5004 8.21732C10.8786 8.21732 11.1854 7.91053 11.1854 7.53237C11.185 7.15422 10.8782 6.84784 10.5 6.84784Z" fill="#FFB513"/>
</svg>
